<svg xmlns="http://www.w3.org/2000/svg" viewBox="0 0 800 450" font-family="monospace">
  <rect width="800" height="450" fill="#1e1e2e"/>
  <text x="400" y="30" text-anchor="middle" fill="#cdd6f4" font-size="16" font-weight="bold">Search Observability Dashboard</text>
  <!-- Layer 1: Business metrics -->
  <rect x="30" y="50" width="740" height="110" rx="6" fill="#313244" stroke="#a6e3a1" stroke-width="2"/>
  <text x="50" y="75" fill="#a6e3a1" font-size="12" font-weight="bold">Layer 1: Business Metrics</text>
  <rect x="50" y="88" width="160" height="55" rx="4" fill="#45475a" stroke="#585b70" stroke-width="1"/>
  <text x="130" y="108" text-anchor="middle" fill="#cdd6f4" font-size="10" font-weight="bold">CTR</text>
  <text x="130" y="125" text-anchor="middle" fill="#a6e3a1" font-size="14" font-weight="bold">47.2%</text>
  <text x="130" y="138" text-anchor="middle" fill="#cdd6f4" font-size="8">target: ≥45%</text>
  <rect x="230" y="88" width="160" height="55" rx="4" fill="#45475a" stroke="#585b70" stroke-width="1"/>
  <text x="310" y="108" text-anchor="middle" fill="#cdd6f4" font-size="10" font-weight="bold">Zero Results</text>
  <text x="310" y="125" text-anchor="middle" fill="#a6e3a1" font-size="14" font-weight="bold">3.1%</text>
  <text x="310" y="138" text-anchor="middle" fill="#cdd6f4" font-size="8">target: ≤5%</text>
  <rect x="410" y="88" width="160" height="55" rx="4" fill="#45475a" stroke="#585b70" stroke-width="1"/>
  <text x="490" y="108" text-anchor="middle" fill="#cdd6f4" font-size="10" font-weight="bold">MRR</text>
  <text x="490" y="125" text-anchor="middle" fill="#a6e3a1" font-size="14" font-weight="bold">0.72</text>
  <text x="490" y="138" text-anchor="middle" fill="#cdd6f4" font-size="8">target: ≥0.65</text>
  <rect x="590" y="88" width="160" height="55" rx="4" fill="#45475a" stroke="#f38ba8" stroke-width="1"/>
  <text x="670" y="108" text-anchor="middle" fill="#cdd6f4" font-size="10" font-weight="bold">Abandonment</text>
  <text x="670" y="125" text-anchor="middle" fill="#f38ba8" font-size="14" font-weight="bold">12.4%</text>
  <text x="670" y="138" text-anchor="middle" fill="#f38ba8" font-size="8">target: ≤10% ⚠</text>
  <!-- Layer 2: Application metrics -->
  <rect x="30" y="175" width="740" height="110" rx="6" fill="#313244" stroke="#89b4fa" stroke-width="2"/>
  <text x="50" y="200" fill="#89b4fa" font-size="12" font-weight="bold">Layer 2: Application Metrics</text>
  <rect x="50" y="213" width="160" height="55" rx="4" fill="#45475a" stroke="#585b70" stroke-width="1"/>
  <text x="130" y="233" text-anchor="middle" fill="#cdd6f4" font-size="10" font-weight="bold">p50 Latency</text>
  <text x="130" y="250" text-anchor="middle" fill="#a6e3a1" font-size="14" font-weight="bold">23ms</text>
  <text x="130" y="263" text-anchor="middle" fill="#cdd6f4" font-size="8">target: ≤50ms</text>
  <rect x="230" y="213" width="160" height="55" rx="4" fill="#45475a" stroke="#585b70" stroke-width="1"/>
  <text x="310" y="233" text-anchor="middle" fill="#cdd6f4" font-size="10" font-weight="bold">p95 Latency</text>
  <text x="310" y="250" text-anchor="middle" fill="#f9e2af" font-size="14" font-weight="bold">142ms</text>
  <text x="310" y="263" text-anchor="middle" fill="#cdd6f4" font-size="8">target: ≤200ms</text>
  <rect x="410" y="213" width="160" height="55" rx="4" fill="#45475a" stroke="#585b70" stroke-width="1"/>
  <text x="490" y="233" text-anchor="middle" fill="#cdd6f4" font-size="10" font-weight="bold">p99 Latency</text>
  <text x="490" y="250" text-anchor="middle" fill="#f38ba8" font-size="14" font-weight="bold">487ms</text>
  <text x="490" y="263" text-anchor="middle" fill="#f38ba8" font-size="8">target: ≤500ms ⚠</text>
  <rect x="590" y="213" width="160" height="55" rx="4" fill="#45475a" stroke="#585b70" stroke-width="1"/>
  <text x="670" y="233" text-anchor="middle" fill="#cdd6f4" font-size="10" font-weight="bold">QPS</text>
  <text x="670" y="250" text-anchor="middle" fill="#89b4fa" font-size="14" font-weight="bold">1,247</text>
  <text x="670" y="263" text-anchor="middle" fill="#cdd6f4" font-size="8">capacity: 3,000</text>
  <!-- Layer 3: Cluster metrics -->
  <rect x="30" y="300" width="740" height="135" rx="6" fill="#313244" stroke="#f9e2af" stroke-width="2"/>
  <text x="50" y="325" fill="#f9e2af" font-size="12" font-weight="bold">Layer 3: Cluster Metrics</text>
  <rect x="50" y="338" width="115" height="80" rx="4" fill="#45475a" stroke="#585b70" stroke-width="1"/>
  <text x="107" y="355" text-anchor="middle" fill="#cdd6f4" font-size="9" font-weight="bold">JVM Heap</text>
  <text x="107" y="377" text-anchor="middle" fill="#a6e3a1" font-size="13" font-weight="bold">62%</text>
  <text x="107" y="395" text-anchor="middle" fill="#cdd6f4" font-size="8">target: ≤75%</text>
  <text x="107" y="412" text-anchor="middle" fill="#cdd6f4" font-size="8">GC: 12ms avg</text>
  <rect x="180" y="338" width="115" height="80" rx="4" fill="#45475a" stroke="#585b70" stroke-width="1"/>
  <text x="237" y="355" text-anchor="middle" fill="#cdd6f4" font-size="9" font-weight="bold">CPU</text>
  <text x="237" y="377" text-anchor="middle" fill="#a6e3a1" font-size="13" font-weight="bold">34%</text>
  <text x="237" y="395" text-anchor="middle" fill="#cdd6f4" font-size="8">merges: 12%</text>
  <text x="237" y="412" text-anchor="middle" fill="#cdd6f4" font-size="8">search: 18%</text>
  <rect x="310" y="338" width="115" height="80" rx="4" fill="#45475a" stroke="#585b70" stroke-width="1"/>
  <text x="367" y="355" text-anchor="middle" fill="#cdd6f4" font-size="9" font-weight="bold">Disk</text>
  <text x="367" y="377" text-anchor="middle" fill="#a6e3a1" font-size="13" font-weight="bold">41%</text>
  <text x="367" y="395" text-anchor="middle" fill="#cdd6f4" font-size="8">shard size: 28GB</text>
  <text x="367" y="412" text-anchor="middle" fill="#cdd6f4" font-size="8">docs: 142M</text>
  <rect x="440" y="338" width="115" height="80" rx="4" fill="#45475a" stroke="#585b70" stroke-width="1"/>
  <text x="497" y="355" text-anchor="middle" fill="#cdd6f4" font-size="9" font-weight="bold">Segments</text>
  <text x="497" y="377" text-anchor="middle" fill="#f9e2af" font-size="13" font-weight="bold">847</text>
  <text x="497" y="395" text-anchor="middle" fill="#cdd6f4" font-size="8">target: ≤1k</text>
  <text x="497" y="412" text-anchor="middle" fill="#cdd6f4" font-size="8">merging: 3</text>
  <rect x="570" y="338" width="115" height="80" rx="4" fill="#45475a" stroke="#585b70" stroke-width="1"/>
  <text x="627" y="355" text-anchor="middle" fill="#cdd6f4" font-size="9" font-weight="bold">Thread Pools</text>
  <text x="627" y="377" text-anchor="middle" fill="#a6e3a1" font-size="13" font-weight="bold">0</text>
  <text x="627" y="392" text-anchor="middle" fill="#a6e3a1" font-size="9">rejected</text>
  <text x="627" y="412" text-anchor="middle" fill="#cdd6f4" font-size="8">queue: 4/1000</text>
</svg>